<?xml version="1.0" standalone="no"?>
<!DOCTYPE svg PUBLIC "-//W3C//DTD SVG 20010904//EN"
 "http://www.w3.org/TR/2001/REC-SVG-20010904/DTD/svg10.dtd">
<svg version="1.0" xmlns="http://www.w3.org/2000/svg"
 width="700.000000pt" height="700.000000pt" viewBox="0 0 700.000000 700.000000"
 preserveAspectRatio="xMidYMid meet">
<metadata>
Created by potrace 1.14, written by Peter Selinger 2001-2017
</metadata>
<g transform="translate(0.000000,700.000000) scale(0.100000,-0.100000)"
fill="#000000" stroke="none">
<path d="M3285 6993 c-757 -50 -1455 -328 -2029 -809 -149 -125 -372 -352
-489 -499 -410 -511 -663 -1120 -744 -1785 -24 -201 -24 -601 1 -800 81 -670
330 -1269 742 -1785 113 -141 408 -436 549 -549 516 -412 1115 -661 1785 -742
104 -13 217 -18 400 -18 267 0 434 14 650 55 594 114 1132 368 1594 755 149
125 372 352 489 499 409 511 662 1118 743 1785 25 200 25 600 0 800 -85 699
-350 1316 -792 1844 -124 148 -351 371 -499 490 -412 330 -900 564 -1420 681
-302 67 -682 98 -980 78z m-484 -924 l579 -421 0 -381 -1 -382 -564 -410
c-310 -225 -574 -416 -587 -423 -21 -12 -60 -1 -378 106 l-355 119 -222 683
-222 684 40 47 c62 74 250 251 367 344 195 156 381 275 606 386 76 38 143 69
148 69 5 0 270 -189 589 -421z m2123 361 c213 -104 431 -243 626 -399 102 -82
323 -292 370 -351 l29 -37 -222 -683 -222 -683 -355 -119 c-320 -107 -357
-117 -378 -105 -12 7 -276 197 -587 423 l-564 409 -1 382 0 381 578 421 c317
231 583 420 590 421 7 0 68 -27 136 -60z m-3139 -2504 l350 -117 224 -688 223
-689 -222 -301 -222 -301 -718 0 -718 0 -28 47 c-96 164 -220 446 -282 643
-64 203 -122 488 -125 616 l-2 74 575 419 c316 230 580 418 585 417 6 -2 168
-55 360 -120z m4379 -300 c567 -413 576 -420 576 -453 0 -68 -42 -311 -81
-466 -67 -266 -143 -464 -277 -722 l-79 -150 -720 -3 -721 -2 -222 301 -222
302 223 687 223 687 356 121 c195 66 358 120 361 119 4 -1 266 -191 583 -421z
m-1729 -1622 c116 -157 214 -294 219 -304 8 -19 -1 -48 -310 -997 l-124 -381
-53 -12 c-121 -26 -314 -51 -484 -62 -262 -17 -574 5 -826 58 l-77 17 -124
381 c-309 948 -318 977 -310 996 5 10 104 147 219 304 l210 285 725 0 725 0
210 -285z"/>
</g>
</svg>
