<svg xmlns="http://www.w3.org/2000/svg" version="1.1" x="0" y="0" viewBox="0 0 434.6 434.6" xml:space="preserve" enable-background="new 0 0 434.559 434.559"><circle cx="217.3" cy="217.3" r="209.8" fill="#e8e8e8"/><path d="m266 284.9 32 43.4-30.2 92.6a210.3 210.3 0 0 1-101.1 0l-30-92.6 31.9-43.4H266z" fill="#c3c6c8"/><path d="M426.5 232.1a208.7 208.7 0 0 1-31.2 96.2H298l-32-43.4 30.2-92.6 51.6-17.4 78.8 57.2z" fill="#d5d6d8"/><path d="M217.3 80v55l-78.8 57.3-51.7-17.4-30-92.6c21.8-26 49.8-46.6 81.7-59.5L217.3 80z" fill="#c3c6c8"/><path fill="#5c6670" d="M168.6 284.9 138.5 192.3 217.3 135 296.1 192.3 266 284.9z"/><path d="M217.3 7.5c-27.9 0-54.5 5.4-78.8 15.3L217.3 80 296 22.8C271.7 13 245.1 7.5 217.3 7.5z" fill="#5c6670"/><path d="M56.7 82.3A209 209 0 0 0 8 232L86.8 175l-30-92.6zM136.6 328.3H39.3a210.1 210.1 0 0 0 127.4 92.6l-30-92.6z" fill="#454f58"/><path d="M377.8 82.3A209 209 0 0 1 426.5 232L347.7 175l30.1-92.6z" fill="#5c6670"/><path d="M298 328.3h97.3a210.1 210.1 0 0 1-127.4 92.6l30-92.6z" fill="#454f58"/><path d="M371 63.6C329.8 22.6 275.2 0 217.2 0S104.7 22.6 63.6 63.6C22.6 104.6 0 159.2 0 217.3s22.6 112.6 63.6 153.6 95.6 63.7 153.7 63.7 112.6-22.6 153.6-63.7c41-41 63.7-95.6 63.7-153.6S412 104.7 370.9 63.6zm-1.6 20.5L341.8 169l-44.5 15-72.5-52.8V84L297 31.4c28 12 52.6 30.1 72.4 52.7zm-82.2 111-26.7 82.3H174l-26.7-82.3 70-50.8 70 50.8zM217.2 15c22 0 43.2 3.5 63 10l-63 45.8L154.4 25c19.9-6.5 41-10 63-10zm-79.6 16.4 72.2 52.5v47.3L137.2 184l-44.4-15-27.6-84.8a203.2 203.2 0 0 1 72.4-52.7zM15 217.3c0-44.6 14.5-85.8 39-119.2l24 74-63 45.7v-.5zm.8 18.4 72.3-52.5 44.4 15 27.8 85.4-27.5 37.2H43.6a200.9 200.9 0 0 1-27.8-85zm37.6 100h77.8l24 74.1a203.1 203.1 0 0 1-101.7-74zm163.9 83.9c-15.4 0-30.4-1.8-44.8-5l-27.6-85 27.5-37.2h89.8l27.4 37.2-27.6 85c-14.4 3.2-29.3 5-44.7 5zm62-9.8 24-74h77.8a203.1 203.1 0 0 1-101.8 74zm111.7-89h-89.3l-27.4-37.2 27.7-85.4 44.5-15 72.2 52.5a200.8 200.8 0 0 1-27.7 85zM356.5 172l24-74c24.6 33.5 39 74.7 39 119.3v.5l-63-45.8z"/></svg>